<svg width="38" height="38" viewBox="0 0 38 38" fill="none" xmlns="http://www.w3.org/2000/svg">
<g clip-path="url(#clip0_8_1374)">
<path d="M19 0C8.50666 0 0 8.50666 0 19C0 29.4939 8.50666 38 19 38C29.4939 38 38 29.4939 38 19C38 8.50666 29.4939 0 19 0ZM19 35.6624C9.83309 35.6624 2.375 28.1669 2.375 18.9999C2.375 9.83302 9.83309 2.37493 19 2.37493C28.1669 2.37493 35.625 9.83306 35.625 18.9999C35.625 28.1668 28.1669 35.6624 19 35.6624ZM27.3125 17.8125H20.1875V10.6875C20.1875 10.032 19.6555 9.5 19 9.5C18.3445 9.5 17.8125 10.032 17.8125 10.6875V17.8125H10.6875C10.032 17.8125 9.5 18.3445 9.5 19C9.5 19.6555 10.032 20.1875 10.6875 20.1875H17.8125V27.3125C17.8125 27.968 18.3445 28.5 19 28.5C19.6555 28.5 20.1875 27.968 20.1875 27.3125V20.1875H27.3125C27.968 20.1875 28.5 19.6555 28.5 19C28.5 18.3445 27.968 17.8125 27.3125 17.8125Z" fill="black"/>
</g>
<defs>
<clipPath id="clip0_8_1374">
<rect width="38" height="38" fill="white"/>
</clipPath>
</defs>
</svg>
