<svg width="37" height="36" viewBox="0 0 37 36" fill="none" xmlns="http://www.w3.org/2000/svg">
<path d="M18.425 27C18.95 27 19.394 26.8185 19.757 26.4555C20.12 26.0925 20.301 25.649 20.3 25.125C20.299 24.601 20.118 24.157 19.757 23.793C19.396 23.429 18.952 23.248 18.425 23.25C17.898 23.252 17.4545 23.4335 17.0945 23.7945C16.7345 24.1555 16.553 24.599 16.55 25.125C16.547 25.651 16.7285 26.095 17.0945 26.457C17.4605 26.819 17.904 27 18.425 27ZM17.075 21.225H19.85C19.85 20.4 19.944 19.75 20.132 19.275C20.32 18.8 20.851 18.15 21.725 17.325C22.375 16.675 22.8875 16.056 23.2625 15.468C23.6375 14.88 23.825 14.174 23.825 13.35C23.825 11.95 23.3125 10.875 22.2875 10.125C21.2625 9.37501 20.05 9.00001 18.65 9.00001C17.225 9.00001 16.069 9.37501 15.182 10.125C14.295 10.875 13.676 11.775 13.325 12.825L15.8 13.8C15.925 13.35 16.2065 12.8625 16.6445 12.3375C17.0825 11.8125 17.751 11.55 18.65 11.55C19.45 11.55 20.05 11.769 20.45 12.207C20.85 12.645 21.05 13.126 21.05 13.65C21.05 14.15 20.9 14.619 20.6 15.057C20.3 15.495 19.925 15.901 19.475 16.275C18.375 17.25 17.7 17.9875 17.45 18.4875C17.2 18.9875 17.075 19.9 17.075 21.225ZM18.5 33C16.425 33 14.475 32.6065 12.65 31.8195C10.825 31.0325 9.2375 29.9635 7.8875 28.6125C6.5375 27.2615 5.469 25.674 4.682 23.85C3.895 22.026 3.501 20.076 3.5 18C3.499 15.924 3.893 13.974 4.682 12.15C5.471 10.326 6.5395 8.73851 7.8875 7.38751C9.2355 6.03651 10.823 4.96801 12.65 4.18201C14.477 3.39601 16.427 3.00201 18.5 3.00001C20.573 2.99801 22.523 3.39201 24.35 4.18201C26.177 4.97201 27.7645 6.04051 29.1125 7.38751C30.4605 8.73451 31.5295 10.322 32.3195 12.15C33.1095 13.978 33.503 15.928 33.5 18C33.497 20.072 33.103 22.022 32.318 23.85C31.533 25.678 30.4645 27.2655 29.1125 28.6125C27.7605 29.9595 26.173 31.0285 24.35 31.8195C22.527 32.6105 20.577 33.004 18.5 33ZM18.5 30C21.85 30 24.6875 28.8375 27.0125 26.5125C29.3375 24.1875 30.5 21.35 30.5 18C30.5 14.65 29.3375 11.8125 27.0125 9.48751C24.6875 7.16251 21.85 6.00001 18.5 6.00001C15.15 6.00001 12.3125 7.16251 9.9875 9.48751C7.6625 11.8125 6.5 14.65 6.5 18C6.5 21.35 7.6625 24.1875 9.9875 26.5125C12.3125 28.8375 15.15 30 18.5 30Z" fill="black"/>
</svg>
