<svg width="37" height="37" viewBox="0 0 37 37" fill="none" xmlns="http://www.w3.org/2000/svg">
<g clip-path="url(#clip0_8_1235)">
<path d="M18.5 5C18.8823 5.00042 19.25 5.14682 19.5281 5.40927C19.8061 5.67173 19.9734 6.03043 19.9958 6.41209C20.0182 6.79375 19.894 7.16957 19.6486 7.46275C19.4032 7.75593 19.0551 7.94434 18.6755 7.9895L18.5 8H11C10.6326 8.00005 10.278 8.13493 10.0034 8.37907C9.72889 8.62321 9.55349 8.95962 9.5105 9.3245L9.5 9.5V27.5C9.50005 27.8674 9.63493 28.222 9.87907 28.4966C10.1232 28.7711 10.4596 28.9465 10.8245 28.9895L11 29H17.75C18.1323 29.0004 18.5 29.1468 18.7781 29.4093C19.0561 29.6717 19.2234 30.0304 19.2458 30.4121C19.2682 30.7938 19.144 31.1696 18.8986 31.4627C18.6532 31.7559 18.3051 31.9443 17.9255 31.9895L17.75 32H11C9.85218 32.0001 8.74773 31.5615 7.91261 30.7741C7.07749 29.9866 6.57484 28.9098 6.5075 27.764L6.5 27.5V9.5C6.49994 8.35218 6.93849 7.24773 7.72593 6.41261C8.51336 5.57749 9.59016 5.07484 10.736 5.0075L11 5H18.5ZM27.0605 13.196L31.3025 17.4395C31.5837 17.7208 31.7417 18.1023 31.7417 18.5C31.7417 18.8977 31.5837 19.2792 31.3025 19.5605L27.0605 23.804C26.779 24.0853 26.3974 24.2432 25.9995 24.2431C25.6016 24.2429 25.22 24.0847 24.9387 23.8032C24.6575 23.5218 24.4996 23.1401 24.4997 22.7422C24.4998 22.3443 24.658 21.9628 24.9395 21.6815L26.621 20H18.5C18.1022 20 17.7206 19.842 17.4393 19.5607C17.158 19.2794 17 18.8978 17 18.5C17 18.1022 17.158 17.7206 17.4393 17.4393C17.7206 17.158 18.1022 17 18.5 17H26.621L24.9395 15.3185C24.658 15.0372 24.4998 14.6557 24.4997 14.2578C24.4996 13.8599 24.6575 13.4782 24.9387 13.1968C25.22 12.9153 25.6016 12.7571 25.9995 12.7569C26.3974 12.7568 26.779 12.9147 27.0605 13.196Z" fill="black"/>
</g>
<defs>
<clipPath id="clip0_8_1235">
<rect width="36" height="36" fill="white" transform="translate(0.5 0.5)"/>
</clipPath>
</defs>
</svg>
