<svg width="38" height="38" viewBox="0 0 38 38" fill="none" xmlns="http://www.w3.org/2000/svg">
<path fill-rule="evenodd" clip-rule="evenodd" d="M16.625 3.16663C14.4789 3.16681 12.364 3.6802 10.4567 4.66397C8.54942 5.64775 6.90504 7.07337 5.66076 8.8219C4.41649 10.5704 3.60841 12.5912 3.30393 14.7155C2.99945 16.8399 3.20741 19.0062 3.91046 21.0339C4.6135 23.0615 5.79125 24.8916 7.34543 26.3715C8.89962 27.8514 10.7852 28.9382 12.8448 29.5412C14.9044 30.1441 17.0783 30.2458 19.1853 29.8377C21.2922 29.4297 23.2709 28.5236 24.9565 27.1953L30.7388 32.9776C31.0374 33.266 31.4374 33.4256 31.8525 33.422C32.2677 33.4184 32.6648 33.2519 32.9584 32.9583C33.2519 32.6648 33.4184 32.2677 33.422 31.8525C33.4256 31.4374 33.2661 31.0374 32.9776 30.7388L27.1953 24.9565C28.7596 22.9719 29.7336 20.5871 30.0059 18.0749C30.2781 15.5626 29.8376 13.0245 28.7347 10.7509C27.6318 8.47739 25.911 6.56027 23.7695 5.21899C21.6279 3.87771 19.1519 3.16646 16.625 3.16663ZM6.33331 16.625C6.33331 13.8954 7.4176 11.2777 9.34767 9.34765C11.2777 7.41759 13.8955 6.33329 16.625 6.33329C19.3545 6.33329 21.9722 7.41759 23.9023 9.34765C25.8323 11.2777 26.9166 13.8954 26.9166 16.625C26.9166 19.3545 25.8323 21.9722 23.9023 23.9023C21.9722 25.8323 19.3545 26.9166 16.625 26.9166C13.8955 26.9166 11.2777 25.8323 9.34767 23.9023C7.4176 21.9722 6.33331 19.3545 6.33331 16.625Z" fill="#606060"/>
</svg>
