<svg width="38" height="38" viewBox="0 0 38 38" fill="none" xmlns="http://www.w3.org/2000/svg">
<rect x="0.5" y="0.5" width="37" height="37" rx="18.5" fill="white"/>
<rect x="0.5" y="0.5" width="37" height="37" rx="18.5" stroke="#606060"/>
<path d="M11.2083 17.4467C11.0868 17.4467 10.9702 17.4856 10.8842 17.5548C10.7983 17.6241 10.75 17.718 10.75 17.8159V27.4155C10.75 27.6193 10.9553 27.7847 11.2083 27.7847H26.7917C26.9132 27.7847 27.0298 27.7458 27.1158 27.6766C27.2017 27.6073 27.25 27.5134 27.25 27.4155V17.8159C27.25 17.718 27.2017 17.6241 27.1158 17.5548C27.0298 17.4856 26.9132 17.4467 26.7917 17.4467H24.9583C24.5937 17.4467 24.2439 17.33 23.9861 17.1222C23.7282 16.9145 23.5833 16.6328 23.5833 16.339C23.5833 16.0453 23.7282 15.7635 23.9861 15.5558C24.2439 15.3481 24.5937 15.2314 24.9583 15.2314H26.7917C28.5627 15.2314 30 16.3892 30 17.8159V27.4155C30 28.1009 29.662 28.7583 29.0603 29.243C28.4586 29.7277 27.6426 30 26.7917 30H11.2083C10.3574 30 9.54138 29.7277 8.9397 29.243C8.33802 28.7583 8 28.1009 8 27.4155V17.8159C8 16.3892 9.43733 15.2314 11.2083 15.2314H13.0417C13.4063 15.2314 13.7561 15.3481 14.0139 15.5558C14.2718 15.7635 14.4167 16.0453 14.4167 16.339C14.4167 16.6328 14.2718 16.9145 14.0139 17.1222C13.7561 17.33 13.4063 17.4467 13.0417 17.4467H11.2083ZM18.6755 8.10847C18.7181 8.07409 18.7687 8.04681 18.8243 8.02819C18.88 8.00958 18.9397 8 19 8C19.0603 8 19.12 8.00958 19.1757 8.02819C19.2313 8.04681 19.2819 8.07409 19.3245 8.10847L24.6338 12.3855C24.6981 12.4371 24.7419 12.5029 24.7596 12.5747C24.7774 12.6464 24.7683 12.7207 24.7336 12.7883C24.6988 12.8558 24.6399 12.9135 24.5644 12.9541C24.4889 12.9946 24.4001 13.0162 24.3093 13.0161H20.375V21.508C20.375 21.8018 20.2301 22.0835 19.9723 22.2913C19.7144 22.499 19.3647 22.6157 19 22.6157C18.6353 22.6157 18.2856 22.499 18.0277 22.2913C17.7699 22.0835 17.625 21.8018 17.625 21.508V13.0161H13.6907C13.5999 13.0162 13.5111 12.9946 13.4356 12.9541C13.3601 12.9135 13.3012 12.8558 13.2664 12.7883C13.2317 12.7207 13.2226 12.6464 13.2404 12.5747C13.2581 12.5029 13.3019 12.4371 13.3662 12.3855L18.6755 8.10847Z" fill="black"/>
</svg>
