<svg width="37" height="36" viewBox="0 0 37 36" fill="none" xmlns="http://www.w3.org/2000/svg">
<path d="M18.83 3H18.17C17.3744 3 16.6113 3.31607 16.0487 3.87868C15.4861 4.44129 15.17 5.20435 15.17 6V6.27C15.1695 6.79609 15.0306 7.31278 14.7673 7.76826C14.504 8.22373 14.1256 8.60196 13.67 8.865L13.025 9.24C12.5689 9.5033 12.0516 9.64192 11.525 9.64192C10.9984 9.64192 10.4811 9.5033 10.025 9.24L9.8 9.12C9.1116 8.72289 8.29376 8.61517 7.52601 8.82046C6.75825 9.02576 6.10333 9.5273 5.705 10.215L5.375 10.785C4.9779 11.4734 4.87017 12.2912 5.07546 13.059C5.28076 13.8268 5.78231 14.4817 6.47 14.88L6.695 15.03C7.14842 15.2918 7.52543 15.6676 7.78858 16.1202C8.05173 16.5729 8.19184 17.0865 8.195 17.61V18.375C8.1971 18.9036 8.05948 19.4234 7.79607 19.8818C7.53266 20.3401 7.15282 20.7207 6.695 20.985L6.47 21.12C5.78231 21.5183 5.28076 22.1732 5.07546 22.941C4.87017 23.7088 4.9779 24.5266 5.375 25.215L5.705 25.785C6.10333 26.4727 6.75825 26.9742 7.52601 27.1795C8.29376 27.3848 9.1116 27.2771 9.8 26.88L10.025 26.76C10.4811 26.4967 10.9984 26.3581 11.525 26.3581C12.0516 26.3581 12.5689 26.4967 13.025 26.76L13.67 27.135C14.1256 27.398 14.504 27.7763 14.7673 28.2317C15.0306 28.6872 15.1695 29.2039 15.17 29.73V30C15.17 30.7956 15.4861 31.5587 16.0487 32.1213C16.6113 32.6839 17.3744 33 18.17 33H18.83C19.6257 33 20.3887 32.6839 20.9513 32.1213C21.5139 31.5587 21.83 30.7956 21.83 30V29.73C21.8305 29.2039 21.9694 28.6872 22.2327 28.2317C22.496 27.7763 22.8744 27.398 23.33 27.135L23.975 26.76C24.4311 26.4967 24.9484 26.3581 25.475 26.3581C26.0016 26.3581 26.5189 26.4967 26.975 26.76L27.2 26.88C27.8884 27.2771 28.7062 27.3848 29.474 27.1795C30.2418 26.9742 30.8967 26.4727 31.295 25.785L31.625 25.2C32.0221 24.5116 32.1298 23.6938 31.9245 22.926C31.7192 22.1582 31.2177 21.5033 30.53 21.105L30.305 20.985C29.8472 20.7207 29.4673 20.3401 29.2039 19.8818C28.9405 19.4234 28.8029 18.9036 28.805 18.375V17.625C28.8029 17.0964 28.9405 16.5766 29.2039 16.1182C29.4673 15.6599 29.8472 15.2793 30.305 15.015L30.53 14.88C31.2177 14.4817 31.7192 13.8268 31.9245 13.059C32.1298 12.2912 32.0221 11.4734 31.625 10.785L31.295 10.215C30.8967 9.5273 30.2418 9.02576 29.474 8.82046C28.7062 8.61517 27.8884 8.72289 27.2 9.12L26.975 9.24C26.5189 9.5033 26.0016 9.64192 25.475 9.64192C24.9484 9.64192 24.4311 9.5033 23.975 9.24L23.33 8.865C22.8744 8.60196 22.496 8.22373 22.2327 7.76826C21.9694 7.31278 21.8305 6.79609 21.83 6.27V6C21.83 5.20435 21.5139 4.44129 20.9513 3.87868C20.3887 3.31607 19.6257 3 18.83 3Z" stroke="black" stroke-width="2" stroke-linecap="round" stroke-linejoin="round"/>
<path d="M18.5 22.5C20.9853 22.5 23 20.4853 23 18C23 15.5147 20.9853 13.5 18.5 13.5C16.0147 13.5 14 15.5147 14 18C14 20.4853 16.0147 22.5 18.5 22.5Z" stroke="black" stroke-width="2" stroke-linecap="round" stroke-linejoin="round"/>
</svg>
