<svg width="26" height="26" viewBox="0 0 26 26" fill="none" xmlns="http://www.w3.org/2000/svg">
<path d="M9.75004 13C9.75004 13.7183 9.4647 14.4071 8.95679 14.915C8.44888 15.423 7.76 15.7083 7.04171 15.7083C6.32341 15.7083 5.63454 15.423 5.12663 14.915C4.61872 14.4071 4.33337 13.7183 4.33337 13C4.33337 12.2817 4.61872 11.5928 5.12663 11.0849C5.63454 10.577 6.32341 10.2916 7.04171 10.2916C7.76 10.2916 8.44888 10.577 8.95679 11.0849C9.4647 11.5928 9.75004 12.2817 9.75004 13Z" stroke="black" stroke-width="2"/>
<path d="M15.1667 7.04163L9.75 10.8333M15.1667 18.9583L9.75 15.1666" stroke="black" stroke-width="2" stroke-linecap="round"/>
<path d="M20.5834 20.0417C20.5834 20.76 20.2981 21.4488 19.7902 21.9567C19.2823 22.4647 18.5934 22.75 17.8751 22.75C17.1568 22.75 16.4679 22.4647 15.96 21.9567C15.4521 21.4488 15.1667 20.76 15.1667 20.0417C15.1667 19.3234 15.4521 18.6345 15.96 18.1266C16.4679 17.6187 17.1568 17.3333 17.8751 17.3333C18.5934 17.3333 19.2823 17.6187 19.7902 18.1266C20.2981 18.6345 20.5834 19.3234 20.5834 20.0417ZM20.5834 5.95833C20.5834 6.67663 20.2981 7.3655 19.7902 7.87341C19.2823 8.38133 18.5934 8.66667 17.8751 8.66667C17.1568 8.66667 16.4679 8.38133 15.96 7.87341C15.4521 7.3655 15.1667 6.67663 15.1667 5.95833C15.1667 5.24004 15.4521 4.55116 15.96 4.04325C16.4679 3.53534 17.1568 3.25 17.8751 3.25C18.5934 3.25 19.2823 3.53534 19.7902 4.04325C20.2981 4.55116 20.5834 5.24004 20.5834 5.95833Z" stroke="black" stroke-width="2"/>
</svg>
