<svg width="37" height="36" viewBox="0 0 37 36" fill="none" xmlns="http://www.w3.org/2000/svg">
<path d="M12.497 24H18.497M12.497 16.5H24.497M11.75 5.25C9.41602 5.3205 8.02552 5.58 7.06252 6.543C5.74402 7.863 5.74402 9.9855 5.74402 14.232V23.991C5.74402 28.239 5.74402 30.3615 7.06252 31.6815C8.37952 33 10.502 33 14.744 33H22.244C26.4875 33 28.6085 33 29.9255 31.68C31.2455 30.3615 31.2455 28.239 31.2455 23.991V14.232C31.2455 9.987 31.2455 7.863 29.9255 6.543C28.964 5.58 27.572 5.3205 25.238 5.25" stroke="black" stroke-width="2" stroke-linecap="round" stroke-linejoin="round"/>
<path d="M11.744 5.625C11.744 4.176 12.92 3 14.369 3H22.619C23.3152 3 23.9829 3.27656 24.4752 3.76884C24.9675 4.26113 25.244 4.92881 25.244 5.625C25.244 6.32119 24.9675 6.98887 24.4752 7.48116C23.9829 7.97344 23.3152 8.25 22.619 8.25H14.369C13.6728 8.25 13.0051 7.97344 12.5129 7.48116C12.0206 6.98887 11.744 6.32119 11.744 5.625Z" stroke="black" stroke-width="2" stroke-linecap="round" stroke-linejoin="round"/>
</svg>
